<svg xmlns="http://www.w3.org/2000/svg" xmlns:xlink="http://www.w3.org/1999/xlink" width="64" zoomAndPan="magnify" viewBox="0 0 48 48" height="64" preserveAspectRatio="xMidYMid meet" version="1.0"><path fill="#f68712" d="M 32.992188 7.742188 C 37.898438 5.945312 41.589844 5.675781 42.714844 7.367188 C 44.757812 10.433594 37.613281 18.78125 26.757812 26.007812 C 15.902344 33.238281 5.445312 36.609375 3.40625 33.546875 C 2.277344 31.851562 3.949219 28.550781 7.5 24.71875 C 2.816406 29.445312 0.492188 33.601562 1.851562 35.640625 C 4.105469 39.027344 15.648438 35.300781 27.632812 27.320312 C 39.617188 19.339844 47.503906 10.125 45.25 6.742188 C 43.890625 4.699219 39.160156 5.242188 32.992188 7.742188 " fill-opacity="1" fill-rule="nonzero"/><path fill="#c1ff72" d="M 31.128906 11.195312 C 34.246094 10.164062 36.558594 10.085938 37.304688 11.210938 C 38.113281 12.425781 36.914062 14.800781 34.359375 17.558594 C 37.726562 14.15625 39.398438 11.167969 38.421875 9.703125 C 37.5625 8.40625 34.808594 8.558594 31.128906 9.847656 L 31.128906 11.195312 " fill-opacity="1" fill-rule="nonzero"/><path fill="#c1ff72" d="M 9.035156 30.035156 C 8.601562 29.382812 8.746094 28.398438 9.363281 27.203125 C 8.941406 26.886719 8.589844 26.523438 8.324219 26.121094 C 7.042969 28 6.59375 29.550781 7.214844 30.484375 C 8.191406 31.953125 11.59375 31.5625 16.027344 29.765625 C 12.5 31.054688 9.847656 31.25 9.035156 30.035156 " fill-opacity="1" fill-rule="nonzero"/><path fill="#b28224" d="M 10.847656 21.152344 C 11.140625 21.011719 11.453125 21.050781 11.542969 21.242188 C 11.632812 21.433594 11.472656 21.703125 11.175781 21.84375 C 10.882812 21.984375 10.570312 21.945312 10.480469 21.753906 C 10.386719 21.5625 10.550781 21.292969 10.847656 21.152344 Z M 13.269531 20.171875 C 14.003906 20.082031 14.632812 20.277344 14.675781 20.605469 C 14.714844 20.9375 14.152344 21.28125 13.417969 21.375 C 12.683594 21.464844 12.054688 21.269531 12.015625 20.9375 C 11.972656 20.609375 12.535156 20.265625 13.269531 20.171875 Z M 14.355469 27.628906 C 17.066406 27.222656 19.089844 25.425781 19.175781 23.46875 L 19.175781 13.605469 L 23.496094 19.636719 L 27.945312 12.902344 L 27.945312 24.371094 C 28.804688 23.769531 29.636719 23.164062 30.445312 22.554688 L 30.445312 7.859375 L 27.945312 7.859375 L 23.34375 17.238281 L 19.175781 12.144531 L 16.675781 12.144531 L 16.675781 20.152344 C 15.679688 19.75 14.464844 19.601562 13.191406 19.792969 C 10.226562 20.230469 8.085938 22.34375 8.40625 24.507812 C 8.730469 26.671875 11.394531 28.066406 14.355469 27.628906 " fill-opacity="1" fill-rule="nonzero"/><path fill="#b28224" d="M 35.777344 28.078125 C 35.714844 28.277344 35.414062 28.367188 35.101562 28.269531 C 34.789062 28.175781 34.585938 27.933594 34.648438 27.734375 C 34.710938 27.53125 35.011719 27.441406 35.324219 27.539062 C 35.636719 27.632812 35.839844 27.875 35.777344 28.078125 Z M 32.8125 28.148438 C 32.074219 28.167969 31.46875 27.914062 31.457031 27.578125 C 31.449219 27.246094 32.039062 26.957031 32.78125 26.9375 C 33.519531 26.917969 34.125 27.171875 34.136719 27.503906 C 34.144531 27.839844 33.554688 28.125 32.8125 28.148438 Z M 33.929688 26.640625 C 32.660156 26.453125 31.441406 26.601562 30.445312 27.003906 L 30.445312 26.210938 C 29.648438 26.777344 28.835938 27.335938 28.007812 27.890625 C 27.988281 27.902344 27.96875 27.917969 27.945312 27.929688 L 27.945312 30.316406 C 28.03125 32.277344 30.054688 34.074219 32.765625 34.476562 C 35.726562 34.917969 38.390625 33.519531 38.714844 31.355469 C 39.035156 29.191406 36.894531 27.082031 33.929688 26.640625 " fill-opacity="1" fill-rule="nonzero"/></svg>