<svg xmlns="http://www.w3.org/2000/svg" xmlns:xlink="http://www.w3.org/1999/xlink" width="64" zoomAndPan="magnify" viewBox="0 0 48 48" height="64" preserveAspectRatio="xMidYMid meet" version="1.0"><path fill="#f68712" d="M 32.992188 9.40625 C 37.898438 7.597656 41.589844 7.328125 42.714844 9.027344 C 44.757812 12.113281 37.613281 20.511719 26.757812 27.78125 C 15.902344 35.054688 5.445312 38.449219 3.40625 35.363281 C 2.277344 33.660156 3.949219 30.339844 7.5 26.484375 C 2.816406 31.242188 0.492188 35.421875 1.851562 37.472656 C 4.105469 40.878906 15.648438 37.132812 27.632812 29.101562 C 39.617188 21.074219 47.503906 11.804688 45.25 8.398438 C 43.890625 6.347656 39.160156 6.890625 32.992188 9.40625 " fill-opacity="1" fill-rule="nonzero"/><path fill="#7b7979" d="M 31.128906 12.878906 C 34.246094 11.84375 36.558594 11.765625 37.304688 12.894531 C 38.113281 14.117188 36.914062 16.507812 34.359375 19.28125 C 37.726562 15.859375 39.398438 12.851562 38.421875 11.378906 C 37.5625 10.074219 34.808594 10.226562 31.128906 11.523438 L 31.128906 12.878906 " fill-opacity="1" fill-rule="nonzero"/><path fill="#7b7979" d="M 9.035156 31.832031 C 8.601562 31.175781 8.746094 30.1875 9.363281 28.984375 C 8.941406 28.667969 8.589844 28.300781 8.324219 27.894531 C 7.042969 29.785156 6.59375 31.347656 7.214844 32.285156 C 8.191406 33.761719 11.59375 33.367188 16.027344 31.5625 C 12.5 32.859375 9.847656 33.054688 9.035156 31.832031 " fill-opacity="1" fill-rule="nonzero"/><path fill="#393536" d="M 10.847656 22.898438 C 11.140625 22.753906 11.453125 22.796875 11.542969 22.988281 C 11.632812 23.179688 11.472656 23.449219 11.175781 23.589844 C 10.882812 23.734375 10.570312 23.691406 10.480469 23.5 C 10.386719 23.308594 10.550781 23.039062 10.847656 22.898438 Z M 13.269531 21.910156 C 14.003906 21.820312 14.632812 22.015625 14.675781 22.347656 C 14.714844 22.683594 14.152344 23.027344 13.417969 23.121094 C 12.683594 23.210938 12.054688 23.015625 12.015625 22.683594 C 11.972656 22.347656 12.535156 22.003906 13.269531 21.910156 Z M 14.355469 29.410156 C 17.066406 29.003906 19.089844 27.199219 19.175781 25.226562 L 19.175781 15.304688 L 23.496094 21.371094 L 27.945312 14.597656 L 27.945312 26.132812 C 28.804688 25.53125 29.636719 24.921875 30.445312 24.304688 L 30.445312 9.523438 L 27.945312 9.523438 L 23.34375 18.960938 L 19.175781 13.835938 L 16.675781 13.835938 L 16.675781 21.890625 C 15.679688 21.488281 14.464844 21.335938 13.191406 21.527344 C 10.226562 21.972656 8.085938 24.09375 8.40625 26.273438 C 8.730469 28.449219 11.394531 29.855469 14.355469 29.410156 " fill-opacity="1" fill-rule="nonzero"/><path fill="#393536" d="M 35.777344 29.863281 C 35.714844 30.066406 35.414062 30.152344 35.101562 30.058594 C 34.789062 29.960938 34.585938 29.71875 34.648438 29.515625 C 34.710938 29.3125 35.011719 29.226562 35.324219 29.320312 C 35.636719 29.417969 35.839844 29.660156 35.777344 29.863281 Z M 32.8125 29.933594 C 32.074219 29.953125 31.46875 29.699219 31.457031 29.363281 C 31.449219 29.027344 32.039062 28.738281 32.78125 28.714844 C 33.519531 28.695312 34.125 28.953125 34.136719 29.289062 C 34.144531 29.625 33.554688 29.914062 32.8125 29.933594 Z M 33.929688 28.417969 C 32.660156 28.226562 31.441406 28.378906 30.445312 28.78125 L 30.445312 27.988281 C 29.648438 28.554688 28.835938 29.121094 28.007812 29.675781 C 27.988281 29.6875 27.96875 29.703125 27.945312 29.714844 L 27.945312 32.117188 C 28.03125 34.085938 30.054688 35.894531 32.765625 36.300781 C 35.726562 36.746094 38.390625 35.339844 38.714844 33.164062 C 39.035156 30.984375 36.894531 28.863281 33.929688 28.417969 " fill-opacity="1" fill-rule="nonzero"/></svg>